PathFileType	4	(X/Y/Z)	Patient4_TMGait_0pt5_02_right_41.trc.trc
DataRate	CameraRate	NumFrames	NumMarkers	Units	OrigDataRate	OrigDataStartFrame	OrigNumFrames
74.468085106383	74.468085106383	5	33	mm	74.468085106383	18	       141
Frame#	Time	Sacral			L.Shoulder			Chest			R.Shoulder			Neck			R.ASIS			L.ASIS			R.Thigh.Superior			R.Thigh.Lateral			R.Thigh.Inferior			R.Patella			L.Thigh.Superior			L.Thigh.Lateral			L.Thigh.Inferior			L.Patella			L.Shank.Superior			L.Shank.Lateral			L.Shank.Inferior			R.Shank.Superior			R.Shank.Lateral			R.Shank.Inferior			R.Heel			R.Midfoot.Superior			R.Midfoot.Lateral			R.Toe			L.Heel			L.Midfoot.Lateral			L.Midfoot.Superior			L.Toe			L.Elbow			L.Wrist			R.Elbow			R.Wrist			
		X1	Y1	Z1	X2	Y2	Z2	X3	Y3	Z3	X4	Y4	Z4	X5	Y5	Z5	X6	Y6	Z6	X7	Y7	Z7	X8	Y8	Z8	X9	Y9	Z9	X10	Y10	Z10	X11	Y11	Z11	X12	Y12	Z12	X13	Y13	Z13	X14	Y14	Z14	X15	Y15	Z15	X16	Y16	Z16	X17	Y17	Z17	X18	Y18	Z18	X19	Y19	Z19	X20	Y20	Z20	X21	Y21	Z21	X22	Y22	Z22	X23	Y23	Z23	X24	Y24	Z24	X25	Y25	Z25	X26	Y26	Z26	X27	Y27	Z27	X28	Y28	Z28	X29	Y29	Z29	X30	Y30	Z30	X31	Y31	Z31	X32	Y32	Z32	X33	Y33	Z33	

18	53.768285714286	678.488645552357	1011.162381572606	420.335350214748	888.660431622181	1431.285455156839	248.939442972581	968.446988997364	1362.581097460821	422.673233699602	866.495625123613	1443.531346988249	583.817309484036	870.897956043718	1494.934449749133	397.582368702966	894.616568995362	945.299199962351	559.838921150190	906.542593476856	958.942848421436	284.596988859721	967.527570622411	768.365668844711	532.662940601698	919.173590635874	648.001974827606	603.967075234211	1006.846411367283	607.553401717150	524.530857053785	1038.754869378360	522.462138455112	541.171498767630	916.434804397460	734.705196187192	320.184821264669	809.877161885424	634.221081562842	254.805563979860	869.567811190963	545.662832106702	325.739801873916	855.959668365522	478.726002402727	337.592005313408	826.713354036287	411.135365570432	329.034076430394	733.236698152602	301.715180115446	273.742568036705	768.464167955762	190.262702273837	354.205961819075	1019.764750897811	435.388411780099	550.554404725008	963.792061585644	323.698152997387	614.285627160899	1029.038894731558	235.244446749323	562.177468824130	929.701420122747	50.598953257767	535.149801722889	1093.965665635865	122.241244536648	574.855530566889	1013.579567218934	48.951866753577	609.485706652444	1217.156183317642	83.238046884245	602.338426576580	630.210005664943	38.722973013299	394.007884310644	707.760058386413	34.733569304386	316.940459871109	789.753382678265	95.092577508325	346.845572001460	919.516686683742	42.171234526999	325.408308042638	948.668187521826	1100.046713885212	96.453930327807	1200.041760914882	1042.696760062190	107.046305974562	692.116099490300	1153.385179534743	700.207134496011	635.739858364532	898.425770652634	712.402670749275	
19	53.781714285714	679.826445631532	1009.927660720929	421.472898184757	889.705394662198	1430.233614632594	250.571537835774	968.648741226442	1361.989419652975	424.773160473457	865.918079627750	1443.354708111026	585.226917296553	870.863983296200	1493.994007447272	398.991429730593	895.374066489965	943.951728414637	561.969850384520	907.960580427379	958.151957842745	286.782016573044	966.995939273737	765.579812922691	535.228858827437	916.549511873669	645.010858322657	605.016148012854	1004.656830777113	604.481134473721	526.255486472963	1035.574790147040	520.119142548937	541.728689646383	915.566898273739	733.393991515167	321.574125124501	807.714663010348	634.099863889380	255.513376324401	866.105375956554	544.811504000676	326.325601593192	851.825551252425	477.962917829733	337.909057335802	822.072223458092	410.713651185235	329.273345299889	727.800300861076	301.956819803103	273.835641606113	762.362020774784	190.129101966419	354.124305303239	1017.802660109974	432.983089282858	550.725766296581	962.871953616791	320.227711331845	613.425437280546	1029.691132228485	232.936935754601	561.219578985399	932.733732829982	47.756927987492	532.832249752985	1096.312124431095	120.387937153131	573.479236800844	1016.270378097456	46.542593932367	607.473052446655	1219.631004980995	82.068642391619	601.064354432380	623.432109927547	38.854803675433	393.892837285368	701.006731604225	34.699886349732	316.910508478331	783.063200840812	95.055603727569	346.751939747740	912.772874464851	41.996562545937	325.440219204235	949.266686826758	1099.382914094842	97.755855415811	1202.070191130838	1051.324743235076	108.417336965176	686.939643705419	1156.189110205074	699.628251380374	627.158060509128	901.803005876403	710.798173437951	
20	53.795142857143	681.324764784156	1008.551407348359	422.908898634543	890.656004504787	1429.064414000256	252.320404438200	968.863388696059	1361.371764533233	426.968600545918	865.342470300476	1443.072090433496	586.778682670810	870.758174083964	1492.966273815955	400.508604986909	896.378069199345	942.480140824840	564.191648170904	909.567997598749	957.343995455814	289.072418954504	966.978246722915	762.805789261054	537.766317029875	914.477856444203	642.027892269232	605.922747533361	1003.051132161132	601.518643391354	527.840248127790	1032.891506601050	517.603116642797	542.154055320289	914.869337484578	732.052733216237	322.924430369288	805.665326257896	633.975641166745	256.318550801360	862.860458761133	543.947624880097	326.920914745414	847.921944890855	477.155197242922	338.262815639695	817.609365044650	410.272061413833	329.551157507704	722.444624869788	302.260823540898	273.995146758264	756.323819884259	190.014029492099	354.041472262725	1015.803110454330	430.273953468478	550.773737644764	961.149420628678	316.893557651630	612.434434751965	1028.823306359853	230.331173116657	560.163966916525	932.821604074473	45.646030845503	530.564883686819	1096.210346743924	117.878383127669	571.880187902882	1015.985491410097	44.351884861541	605.530412710833	1219.360417005204	79.324263915859	599.735820348914	616.658208017564	39.042293720697	393.753009951363	694.262421511083	34.688293099365	316.873681014286	776.388384510441	95.037471275288	346.641656062095	906.035748570016	41.802098264246	325.460355539267	949.578741650609	1098.434118441137	99.328890389587	1203.422034829440	1058.970916035844	109.996016766746	682.828880883936	1158.211331764726	699.204304070813	620.477619367543	904.180256015492	709.196959185218	
21	53.808571428571	682.943084350634	1007.080652131275	424.639152500191	891.518749715395	1427.801945460944	254.191108549051	969.111951952050	1360.735875324164	429.257167151153	864.793990736798	1442.678385637309	588.479421052488	870.621724817726	1491.877791468399	402.143809235148	897.601798013865	940.916615685691	566.474842829562	911.316832093865	956.531359165458	291.449069419751	967.474887572508	760.100212583047	540.200702599779	913.002829377194	639.150804564472	606.701041280868	1002.040437595731	598.744240327982	529.252200050542	1030.750839146589	515.000994607309	542.445951554492	914.350126199227	730.706265659150	324.230625016750	803.759854236178	633.851566401034	257.235771354041	859.878443713279	543.080463731371	327.544895241968	844.303335373036	476.303475763853	338.677923864376	813.375375662548	409.807560323201	329.888449045608	717.212239173971	302.640726613821	274.233005650696	750.372661809541	189.926424989243	353.966515643894	1013.875851265649	427.363465366227	550.729231484383	958.867331683390	313.746746009589	611.436657146912	1026.703835020886	227.489718662051	559.076781087664	930.351294821940	44.138818589934	528.515048635812	1094.002364121182	114.858647668576	570.129983891569	1013.171502657780	42.376778694480	603.780522582182	1216.792849496202	75.320515601274	598.359387231496	609.893666861817	39.318929338447	393.583055671625	687.532732027098	34.716516563505	316.827366019730	769.739223756433	95.047495594205	346.513148769030	899.309003617734	41.582759598977	325.466002872636	949.599297698644	1097.210306522494	101.175989484354	1204.162080514958	1065.544022985017	111.770523010495	679.767254199159	1159.423326995582	699.002236913428	615.695884948248	905.522397620711	707.701414751597	
22	53.822000000000	684.630340567638	1005.581347528327	426.647430103894	892.310223719406	1426.488371119123	256.188452438044	969.418726678845	1360.097588975640	431.635931984527	864.308017153895	1442.183692853700	590.334818617963	870.507365657772	1490.770500941711	403.908577669968	899.002983824368	939.314675757233	568.794403432585	913.139864645424	955.732198548316	293.895458877292	968.457740492132	757.544655744000	542.460356000196	912.160631979853	636.495069630456	607.380875875962	1001.617069903571	596.248931844480	530.464754386351	1029.179429968192	512.418241609291	542.616773869616	914.012477079909	729.391404421191	325.504542783763	802.036138868143	633.736501694724	258.282532497411	857.207230523991	542.227254019619	328.226594032803	841.028311160355	475.414522676475	339.181949446899	809.424399467132	409.323211273125	330.306790385458	712.150733101808	303.115807461072	274.560912696607	744.534741438651	189.880911663452	353.907289627561	1012.127007391811	424.386474392902	550.633077133357	956.291040951788	310.864278204483	610.555577266659	1023.645346928999	224.529505073586	558.023630673982	925.826387549438	43.120941836709	526.808779937687	1090.097432019368	111.560470169275	568.331320194200	1008.371525492556	40.643923574586	602.318603522883	1212.435392013253	70.509396889164	596.974470100757	603.145481223885	39.727884713490	393.378747793548	680.824138830495	34.806299692220	316.768477104167	763.130564630552	95.096552801816	346.362204446249	892.597159864287	41.333664449578	325.454789264167	949.319795487749	1095.738074214751	103.302773698051	1204.349128279162	1070.963308938277	113.730371596379	677.734934278941	1159.832619530037	699.078335598256	612.803214961139	905.837858545391	706.410202711591	
